<svg xmlns="http://www.w3.org/2000/svg" viewBox="0 0 800 200">
  <defs>
    <linearGradient id="lg" x1="0" x2="1">
      <stop offset="0" stop-color="#f4c27a"/>
      <stop offset="1" stop-color="#e0994f"/>
    </linearGradient>
  </defs>
  <rect width="800" height="200" fill="transparent"/>
  <g transform="translate(50,20)">
    <path d="M10 140 q60 -80 120 -40 q40 28 90 -20 q60 -60 120 -10 q40 30 80 -10" fill="none" stroke="#c66b2e" stroke-width="3" opacity="0.12"/>
    <g transform="translate(0,40)">
      <path d="M30 90 C10 70,10 40,40 30 C70 20,80 50,60 70 C50 85,40 110,30 90 Z" fill="#e0994f" opacity="0.95"/>
      <path d="M110 60 C90 40,90 10,120 0 C150 -10,160 20,140 40 C130 55,120 80,110 60 Z" fill="#c66b2e" opacity="0.95"/>
      <path d="M190 70 C170 50,170 20,200 10 C230 0,240 30,220 50 C210 65,200 90,190 70 Z" fill="#f4c27a" opacity="0.95"/>
    </g>
    <g transform="translate(430,20)">
      <path d="M20 120 C0 90,0 60,30 50 C60 40,80 60,60 90 C50 110,30 140,20 120 Z" fill="#9e4f2c" opacity="0.95"/>
    </g>
  </g>
</svg>
